<svg width="150" height="200" viewBox="0 0 150 200" fill="none" xmlns="http://www.w3.org/2000/svg" role="img" aria-label="Resume preview">
  <rect width="150" height="200" rx="4" fill="white" stroke="#E7E8EB"/>
  <text x="14" y="28" font-family="Georgia, serif" font-size="13" font-weight="700" fill="#18181b">John Mayer</text>
  <rect x="14" y="36" width="80" height="3" rx="1.5" fill="#C9CCD2"/>
  <g fill="#E2E4E8">
    <rect x="14" y="50" width="122" height="2.5" rx="1.25"/>
    <rect x="14" y="57" width="122" height="2.5" rx="1.25"/>
    <rect x="14" y="64" width="96" height="2.5" rx="1.25"/>
  </g>
  <rect x="14" y="78" width="46" height="3" rx="1.5" fill="#9AA0AA"/>
  <g fill="#E2E4E8">
    <rect x="14" y="88" width="122" height="2.5" rx="1.25"/>
    <rect x="14" y="95" width="122" height="2.5" rx="1.25"/>
    <rect x="14" y="102" width="110" height="2.5" rx="1.25"/>
    <rect x="14" y="109" width="122" height="2.5" rx="1.25"/>
    <rect x="14" y="116" width="80" height="2.5" rx="1.25"/>
  </g>
  <rect x="14" y="130" width="40" height="3" rx="1.5" fill="#9AA0AA"/>
  <g fill="#E2E4E8">
    <rect x="14" y="140" width="122" height="2.5" rx="1.25"/>
    <rect x="14" y="147" width="100" height="2.5" rx="1.25"/>
    <rect x="14" y="154" width="122" height="2.5" rx="1.25"/>
    <rect x="14" y="161" width="64" height="2.5" rx="1.25"/>
  </g>
  <rect x="14" y="175" width="36" height="3" rx="1.5" fill="#9AA0AA"/>
  <g fill="#E2E4E8">
    <rect x="14" y="185" width="122" height="2.5" rx="1.25"/>
  </g>
</svg>
